#!OML:ASF F:\VICON\USERDATA\INSTALL\rory3\rory3.ASF
:FULLY-SPECIFIED
:DEGREES
64
root -0.18122587464136647 17.605990952949288 31.420703270647184 0.7101343166358116 6.664614674656875 -0.6475488009535579
lfemur -23.326981941892114 -0.4079064541189602 -24.861961488983855
ltibia 38.28718530047834
lfoot -10.477511620400467 -11.744551507077077
ltoes 1.7451767080811864
rfemur -3.299561377636346 -1.2185265889135457 25.257694228959735
rtibia 98.52060344305531
rfoot 20.88020533302108 -9.154873091573599
rtoes 8.693100468925394
lowerback 15.235622113332537 2.0031279459028397 1.135652205860893
upperback -0.20568915721852316 2.825846300355622 -0.5324128298220405
thorax -8.467752468669246 1.3070950148084162 -1.4937500117052123
lowerneck -18.924077580289595 -6.223128889161745 -2.343851797190058
upperneck 15.721287538807967 -8.732796761901174 4.725872018928696
head 8.39033693760463 -3.8410508584748912 0.914234470355385
lclavicle 2.0149644613414342e-16 9.004880078934583e-17
lhumerus -63.78723108143773 -2.531843437683263 97.06851621340205
lradius 118.42452243607926
lwrist 38.94985721976334
lhand -23.330165277332608 4.171978175340817
lfingers 7.12502000000006
lthumb 3.123916659962843 34.06987077160841
rclavicle 2.0149644613414342e-16 9.004880078934583e-17
rhumerus -40.3170420008042 14.700846817035778 -100.48670702123846
rradius 107.28575338165146
rwrist -17.022622350677324
rhand -20.90375931604121 -5.848865630474432
rfingers 7.12502000000006
rthumb 5.464899558802742 13.350575206038686
65
root -0.19182425295615047 17.37022094370394 31.629886283253512 0.6028866733759386 6.425275695827674 0.4810659778979369
lfemur -21.435220521556325 -0.9473903834987669 -26.365041796127272
ltibia 42.18965484529421
lfoot -16.346152728317467 -7.737748701651341
ltoes 2.4245661547536335
rfemur -9.240455197022483 -3.268238338180899 22.210110744753965
rtibia 106.57586583618524
rfoot 19.240118922371167 -8.517076930976613
rtoes 9.96810036045586
lowerback 15.97233642758128 1.9160631859547115 -0.23779992762589175
upperback -0.0519742960781249 2.454264583122121 -0.9020127489041998
thorax -8.761864153311315 1.174565471717211 -1.0625259982755693
lowerneck -19.32818849629534 -6.166924921567105 -2.2748765776824635
upperneck 15.470948673691797 -8.687758568199746 4.806446268861411
head 8.377375272857993 -3.797797353680379 0.9323793653970729
lclavicle -5.841039585252398e-17 -1.1119781846909838e-16
lhumerus -59.38661064211811 -4.74388390828824 97.58825528577022
lradius 116.35376316975572
lwrist 39.55829918955093
lhand -23.58096966934913 4.719290214764687
lfingers 7.12502000000006
lthumb 2.881779426924445 34.62090012380157
rclavicle -5.841039585252398e-17 -1.1119781846909838e-16
rhumerus -41.97240516883013 13.147757055282142 -101.07931412642338
rradius 104.69886991018244
rwrist -17.16576705740669
rhand -21.022322593859105 -5.733411772171447
rfingers 7.12502000000006
rthumb 5.350497951997549 12.659476732653166
66
root -0.20067993120163652 17.175338322812163 32.22027790494596 0.7356643161471974 6.037386440597285 1.5507599218681087
lfemur -18.88949542864286 -1.5375651480480188 -27.754302071448755
ltibia 45.16694480415876
lfoot -21.26398937568125 -3.3750954740585657
ltoes 1.336954737081661
rfemur -15.852268248895601 -5.066220433026231 19.59378213941521
rtibia 113.78678671413257
rfoot 17.362539716795588 -7.448900126137016
rtoes 11.202098044493226
lowerback 16.6387950961007 1.8081762444798097 -1.4502599604127473
upperback 0.043388647492511034 2.072575601574909 -1.2278591429396852
thorax -9.048533285283739 1.0330540914115505 -0.6279284460926994
lowerneck -19.69195066961627 -6.064042150369995 -2.215592579600515
upperneck 15.383001293393407 -8.566172326732135 4.84585606356146
head 8.407915049400456 -3.7244235355417024 0.9450383501789332
lclavicle -1.299476413343246e-16 -1.6658932053738835e-16
lhumerus -54.46165600346837 -6.938019802631961 97.93069692188406
lradius 114.52833968008947
lwrist 40.200135983961104
lhand -23.693814960979296 5.152198724042615
lfingers 7.125020000000059
lthumb 2.7728425009870596 35.05599729210492
rclavicle -1.299476413343246e-16 -1.6658932053738835e-16
rhumerus -43.742559169225736 11.88478170668284 -101.51660780783087
rradius 102.89344470534792
rwrist -17.710827636994928
rhand -21.127818612610124 -5.8210611191178465
rfingers 7.125020000000059
rthumb 5.248892612539559 12.082289966428275
67
root -0.20357280733744826 17.048191751019527 33.214895147294655 1.0394074589419817 5.618193355142591 2.3389147019087413
lfemur -15.858428236682402 -2.1053357032495064 -28.77361222671511
ltibia 46.69949976901376
lfoot -24.638366064307558 0.37424597968252904
ltoes -0.9592225388417566
rfemur -22.577782918462987 -6.491200154934086 17.794160131438705
rtibia 118.93958646097585
rfoot 15.360326362291593 -6.333490042254351
rtoes 11.786023073680918
lowerback 17.09991646506848 1.6251842908648104 -2.3380683322239477
upperback 0.06383384314695434 1.6496357873953187 -1.422038714430651
thorax -9.28158921984461 0.8632995333097542 -0.20249040221772518
lowerneck -19.92641345939169 -5.8829315333972545 -2.1721370234458193
upperneck 15.43276773069702 -8.324213969933355 4.816718574215673
head 8.454206485857243 -3.6022550833940317 0.9513242735570075
lclavicle -8.070077354179453e-17 -1.2845733793759436e-16
lhumerus -49.56789415971703 -8.792851984826608 98.00258589648527
lradius 113.03937922590532
lwrist 40.66705422000279
lhand -23.673439298424817 5.342637908497256
lfingers 7.125020000000059
lthumb 2.7925385357809676 35.24891132935469
rclavicle -8.070077354179453e-17 -1.2845733793759436e-16
rhumerus -45.61330353078497 11.006387183004023 -101.76651487505282
rradius 101.89738015885231
rwrist -18.728646073098094
rhand -21.127705564565087 -6.123090259996257
rfingers 7.125020000000059
rthumb 5.24923004866384 11.686027644014224
68
root -0.20249818535077302 17.002298732792944 34.47412530458369 1.431965018917471 5.21736431587931 2.7259492649529364
lfemur -12.573089997754096 -2.6010049348895885 -29.3363083955612
ltibia 46.54376526808842
lfoot -26.131143473079117 2.6979550446663705
ltoes -4.138203302534268
rfemur -28.997948382883983 -7.520144531266292 16.968133846947843
rtibia 121.19946939116647
rfoot 13.310994025601929 -5.545431822565592
rtoes 11.3526223893386
lowerback 17.260658941447797 1.3292736861478311 -2.858406855355252
upperback 0.00454632853226955 1.1542923662968403 -1.4472074714488594
thorax -9.440919091475923 0.6490763888970078 0.19486406173019155
lowerneck -20.038488885644373 -5.6099206468844525 -2.1419263586964585
upperneck 15.540444007058657 -7.945254224247908 4.691068090275239
head 8.488240607523739 -3.423445756016208 0.9454976123422681
lclavicle -9.023253335847061e-17 -1.358378172897205e-16
lhumerus -45.21643257570957 -10.041117340050217 97.7312945709276
lradius 111.89371327824927
lwrist 40.99990787778651
lhand -23.560779320407917 5.100355978204524
lfingers 7.125020000000059
lthumb 2.9013360632846448 35.009446752437874
rclavicle -9.023253335847061e-17 -1.358378172897205e-16
rhumerus -47.653868676574795 10.514677206137979 -101.9354038681392
rradius 101.53107966238242
rwrist -20.22811217592417
rhand -21.011843720974817 -6.653720395167223
rfingers 7.125020000000059
rthumb 5.3612594424827815 11.40136136230061
69
root -0.20030624362627963 17.036952015958896 35.963484192141365 1.8920067940274228 4.830611364121719 2.758138438319429
lfemur -9.031131505546456 -2.9848323490993156 -29.44902790601741
ltibia 44.84664881763298
lfoot -25.59886313244454 3.3150523596458905
ltoes -8.158838976387905
rfemur -34.77014192282336 -8.162574192080571 17.051919903158833
rtibia 120.66951909601391
rfoot 11.35511370003165 -5.210807129559027
rtoes 10.160102663120552
lowerback 17.12322786493829 0.9270384142203307 -3.065232142138922
upperback -0.12054147947745544 0.589145619190319 -1.310725785302589
thorax -9.517261348666882 0.39329984062356826 0.5808425192174715
lowerneck -20.094071981686472 -5.24446243516347 -2.115861283859809
upperneck 15.683812160839581 -7.432080757934288 4.484870895936114
head 8.516062989275559 -3.1873189656900633 0.9310559254259119
lclavicle -1.6044380081983563e-16 -1.9020261324929898e-16
lhumerus -41.55102581036925 -10.520616583808591 97.18396344825925
lradius 111.38239287421969
lwrist 41.551064598292015
lhand -23.408819974163528 4.4360531094618185
lfingers 7.125020000000059
lthumb 3.0480721835203495 34.34746497058133
rclavicle -1.6044380081983563e-16 -1.9020261324929898e-16
rhumerus -49.907936453994395 10.48072034135064 -102.10298052735611
rradius 101.90181054994544
rwrist -22.099334228527447
rhand -20.81205446830448 -7.329159413614324
rfingers 7.125020000000059
rthumb 5.554263910414992 11.205771468367642
70
root -0.19903101958659042 17.143963060842687 37.58205347005568 2.416371579274577 4.37975907491759 2.539847179524005
lfemur -5.095764671845097 -3.160000783717723 -29.154362040609787
ltibia 41.998472776038106
lfoot -22.923749631721073 2.349380161176107
ltoes -13.00308084359541
rfemur -39.67217962244019 -8.346335008029651 17.872689763906454
rtibia 117.81866174781752
rfoot 9.609454594279965 -5.194722198576072
rtoes 8.6884798447987
lowerback 16.739840639069698 0.45785859151669084 -3.0496980483998337
upperback -0.2935263123425073 -0.011316891818686337 -1.0358233181316951
thorax -9.511247718604004 0.11524394847811276 0.9904965054697474
lowerneck -20.14397729965651 -4.79601636076999 -2.0864255680118897
upperneck 15.912019766626223 -6.800251907063159 4.232880379216869
head 8.567211535802679 -2.8992217932914746 0.9152344383316864
lclavicle -1.938107028165166e-16 -2.1603870715563647e-16
lhumerus -38.49359182703331 -10.226623542918619 96.48035886044144
lradius 111.69512051876296
lwrist 42.63255881051799
lhand -23.251119717160698 3.6600930984598
lfingers 7.125020000000059
lthumb 3.200345472788533 33.572351003597596
rclavicle -1.938107028165166e-16 -2.1603870715563647e-16
rhumerus -52.405398825753956 10.83224929360605 -102.21047349062304
rradius 102.96602208785728
rwrist -24.098263557487172
rhand -20.554176579782144 -8.049753462497517
rfingers 7.125020000000059
rthumb 5.8033027961960535 11.065308717578004
71
root -0.19832946263074602 17.308475746105604 38.93575860687126 2.938639480698406 3.714862447281576 2.158395364741326
lfemur -0.7652942710138806 -3.0423263218418666 -28.5661055718381
ltibia 38.45367058898393
lfoot -18.10029730447798 0.08533567074323134
ltoes -18.312082317222057
rfemur -43.55034236839804 -7.944788495387231 19.19299024233456
rtibia 112.82159898787344
rfoot 8.108748993072375 -5.282548397066225
rtoes 7.089451605755155
lowerback 16.14858483978253 -0.022087713365504524 -2.903172726491168
upperback -0.5030515396493078 -0.5902003219567548 -0.6544991767691715
thorax -9.432463337647944 -0.15584842603477378 1.429999422880131
lowerneck -20.186914031775178 -4.2908822480903925 -2.0600380817035746
upperneck 16.269459057276883 -6.084452856021965 3.953146573484648
head 8.659401440628107 -2.5755244884608826 0.9004056203777716
lclavicle -1.7894212235018527e-16 -2.0452592267621342e-16
lhumerus -36.0629968512688 -9.38440944279069 95.68856963620492
lradius 112.58558223778667
lwrist 44.133258781522954
lhand -23.132016707040748 3.029913875252424
lfingers 7.125020000000059
lthumb 3.315340776843078 32.94047077068004
rclavicle -1.7894212235018527e-16 -2.0452592267621342e-16
rhumerus -55.077176149279396 11.259946858740744 -102.1037788912235
rradius 104.2655829650162
rwrist -25.912552490914244
rhand -20.260595176920656 -8.675235862851668
rfingers 7.125020000000059
rthumb 6.086816410553996 10.827035673471734
